<svg width="1354" height="688" viewBox="0 0 1354 688" fill="none" xmlns="http://www.w3.org/2000/svg">
<path d="M751.513 41.7468C761.774 10.9331 791.237 2.06253 803.961 1.47893C785.704 -2.70348 745.164 -0.505292 729.081 41.7468C710.754 89.8933 757.051 138.331 803.961 126.076C841.49 116.271 852.231 81.1392 852.913 64.7989C844.171 87.8507 833.734 106.234 803.961 106.234C767.83 106.234 738.692 80.264 751.513 41.7468Z" fill="#00C570"/>
<path d="M466.458 566.144C446.33 566.144 428.93 562.901 414.26 556.416C399.59 549.931 388.331 540.715 380.485 528.768C372.638 516.48 368.714 501.973 368.714 485.248C368.714 469.547 372.297 455.723 379.461 443.776C386.626 431.488 397.543 421.248 412.213 413.056C427.224 404.864 445.818 399.061 467.994 395.648L553.456 381.824V438.144L481.811 450.944C470.894 452.992 462.535 456.576 456.735 461.696C450.935 466.475 448.035 473.472 448.035 482.688C448.035 491.221 451.277 497.877 457.759 502.656C464.241 507.435 472.258 509.824 481.811 509.824C494.434 509.824 505.522 507.093 515.074 501.632C524.627 496.171 531.962 488.832 537.08 479.616C542.538 470.059 545.268 459.648 545.268 448.384V375.68C545.268 365.099 541.003 356.224 532.474 349.056C524.286 341.888 513.027 338.304 498.698 338.304C485.052 338.304 472.94 342.059 462.364 349.568C452.129 357.077 444.624 366.976 439.847 379.264L378.438 350.08C383.896 334.379 392.596 320.896 404.537 309.632C416.478 298.368 430.807 289.664 447.524 283.52C464.241 277.376 482.493 274.304 502.281 274.304C525.821 274.304 546.632 278.571 564.714 287.104C582.796 295.637 596.784 307.584 606.677 322.944C616.912 337.963 622.03 355.541 622.03 375.68V560H550.385V514.944L567.784 511.872C559.596 524.16 550.556 534.4 540.662 542.592C530.768 550.443 519.68 556.245 507.398 560C495.116 564.096 481.47 566.144 466.458 566.144ZM707.103 560V347.008H660.022V280.448H707.103V276.352C707.103 254.165 711.367 235.392 719.896 220.032C728.767 204.672 741.39 192.896 757.766 184.704C774.142 176.512 793.929 172.416 817.128 172.416C821.564 172.416 826.34 172.757 831.457 173.44C836.575 173.781 840.839 174.293 844.251 174.976V240.512C840.839 239.829 837.769 239.488 835.04 239.488C832.651 239.147 830.093 238.976 827.363 238.976C813.034 238.976 802.117 242.219 794.611 248.704C787.447 254.848 783.865 264.064 783.865 276.352V280.448H843.739V347.008H783.865V560H707.103ZM883.224 560V280.448H954.869V347.52L949.751 337.792C955.892 314.24 965.956 298.368 979.944 290.176C994.273 281.643 1011.16 277.376 1030.61 277.376H1046.98V343.936H1022.93C1004.17 343.936 988.985 349.739 977.385 361.344C965.786 372.608 959.986 388.651 959.986 409.472V560H883.224ZM1167.12 566.144C1146.99 566.144 1129.59 562.901 1114.92 556.416C1100.25 549.931 1088.99 540.715 1081.14 528.768C1073.3 516.48 1069.37 501.973 1069.37 485.248C1069.37 469.547 1072.95 455.723 1080.12 443.776C1087.28 431.488 1098.2 421.248 1112.87 413.056C1127.88 404.864 1146.48 399.061 1168.65 395.648L1254.11 381.824V438.144L1182.47 450.944C1171.55 452.992 1163.19 456.576 1157.39 461.696C1151.59 466.475 1148.69 473.472 1148.69 482.688C1148.69 491.221 1151.93 497.877 1158.42 502.656C1164.9 507.435 1172.92 509.824 1182.47 509.824C1195.09 509.824 1206.18 507.093 1215.73 501.632C1225.28 496.171 1232.62 488.832 1237.74 479.616C1243.2 470.059 1245.93 459.648 1245.93 448.384V375.68C1245.93 365.099 1241.66 356.224 1233.13 349.056C1224.94 341.888 1213.69 338.304 1199.36 338.304C1185.71 338.304 1173.6 342.059 1163.02 349.568C1152.79 357.077 1145.28 366.976 1140.51 379.264L1079.1 350.08C1084.55 334.379 1093.25 320.896 1105.19 309.632C1117.14 298.368 1131.46 289.664 1148.18 283.52C1164.9 277.376 1183.15 274.304 1202.93 274.304C1226.48 274.304 1247.29 278.571 1265.37 287.104C1283.45 295.637 1297.44 307.584 1307.33 322.944C1317.57 337.963 1322.68 355.541 1322.68 375.68V560H1251.04V514.944L1268.44 511.872C1260.25 524.16 1251.21 534.4 1241.32 542.592C1231.43 550.443 1220.34 556.245 1208.06 560C1195.77 564.096 1182.13 566.144 1167.12 566.144Z" fill="#00C570"/>
<path d="M0 248V178.667H314.512V248L87.9567 493.333H173.248V560H0V493.333L215.894 248H0Z" fill="#00C570"/>
<path d="M15.0113 650.667L22.7728 594.773H5.62927L6.65277 587.093H49.2984L48.2749 594.773H31.2167L23.3699 650.667H15.0113ZM42.4638 650.667L48.946 604.672H56.7929L55.5988 613.12L54.8312 611.925C56.3094 609.307 58.2428 607.376 60.631 606.123C63.0192 604.816 65.805 604.16 68.9895 604.16H71.8042L70.6954 611.669H66.6867C63.4456 611.669 60.7163 612.72 58.4987 614.827C56.2811 616.875 54.8594 619.973 54.2341 624.128L50.5665 650.667H42.4638ZM86.9524 651.691C84.3372 651.691 81.892 651.237 79.6174 650.325C77.3998 649.36 75.6087 647.963 74.244 646.144C72.8794 644.267 72.197 641.936 72.197 639.147C72.197 636.475 72.8511 634.112 74.1587 632.064C75.5234 629.957 77.4286 628.251 79.8733 626.944C82.3755 625.579 85.3036 624.64 88.6583 624.128L106.058 621.312L105.375 627.968L90.0229 630.613C87.123 631.125 84.8202 632.091 83.1143 633.515C81.4085 634.88 80.5556 636.613 80.5556 638.72C80.5556 640.656 81.2667 642.192 82.6879 643.328C84.1666 644.411 86.0713 644.949 88.4024 644.949C91.0752 644.949 93.4916 644.325 95.6522 643.072C97.8697 641.819 99.6896 640.144 101.111 638.037C102.59 635.877 103.499 633.515 103.84 630.955L105.29 620.032C105.631 617.984 105.375 616.304 104.522 614.997C103.67 613.632 102.475 612.635 100.94 612.011C99.462 611.328 97.8697 610.987 96.1639 610.987C93.3781 610.987 90.8758 611.696 88.6583 613.12C86.4977 614.544 84.8202 616.336 83.6261 618.496L76.9734 614.485C78.1109 612.379 79.6462 610.533 81.5791 608.939C83.5696 607.291 85.8436 606.011 88.4024 605.099C91.0182 604.133 93.7757 603.648 96.6756 603.648C100.087 603.648 103.13 604.357 105.802 605.781C108.531 607.205 110.578 609.168 111.943 611.669C113.365 614.171 113.848 617.072 113.393 620.373L109.128 650.667H101.281L102.475 641.963L104.181 642.731C102.987 644.549 101.509 646.144 99.7461 647.509C97.9838 648.816 96.0221 649.84 93.861 650.581C91.7005 651.323 89.3976 651.691 86.9524 651.691ZM121.425 650.667L127.907 604.672H135.669L134.475 613.632L133.281 612.693C134.759 609.792 136.863 607.573 139.592 606.037C142.321 604.443 145.307 603.648 148.548 603.648C151.902 603.648 154.802 604.443 157.247 606.037C159.692 607.632 161.483 609.819 162.621 612.608C163.815 615.339 164.156 618.469 163.644 621.995L159.636 650.667H151.618L155.542 622.677C155.996 619.205 155.371 616.448 153.665 614.4C151.959 612.352 149.514 611.328 146.33 611.328C144.113 611.328 142.066 611.84 140.189 612.864C138.369 613.829 136.834 615.227 135.583 617.045C134.389 618.864 133.593 621.029 133.195 623.531L129.442 650.667H121.425ZM188.129 651.691C185.116 651.691 182.329 651.179 179.771 650.155C177.269 649.072 175.137 647.568 173.374 645.632C171.612 643.696 170.389 641.451 169.706 638.891L176.274 636.245C177.297 638.917 178.89 641.024 181.05 642.56C183.268 644.096 185.798 644.864 188.641 644.864C191.37 644.864 193.56 644.208 195.208 642.901C196.914 641.536 197.767 639.856 197.767 637.867C197.767 636.389 197.227 635.195 196.147 634.283C195.067 633.317 193.56 632.576 191.626 632.064L184.888 630.187C181.42 629.221 178.747 627.712 176.871 625.664C175.051 623.557 174.142 621.056 174.142 618.155C174.142 615.483 174.909 613.061 176.444 610.901C177.98 608.683 180.027 606.917 182.585 605.611C185.201 604.304 188.073 603.648 191.2 603.648C195.408 603.648 199.018 604.731 202.032 606.891C205.102 608.997 207.093 611.867 208.002 615.509L201.349 618.155C200.554 615.707 199.217 613.829 197.341 612.523C195.521 611.216 193.361 610.56 190.859 610.56C188.3 610.56 186.225 611.184 184.632 612.437C183.041 613.691 182.244 615.28 182.244 617.216C182.244 618.693 182.699 619.888 183.609 620.8C184.576 621.712 185.997 622.448 187.873 623.019L195.123 625.237C198.592 626.261 201.236 627.824 203.055 629.931C204.932 631.979 205.87 634.453 205.87 637.355C205.87 640.027 205.102 642.448 203.567 644.608C202.032 646.768 199.899 648.507 197.17 649.813C194.498 651.067 191.484 651.691 188.129 651.691ZM212.074 667.733L220.945 604.672H228.791L227.427 614.571L225.209 612.523C227.143 609.733 229.616 607.573 232.63 606.037C235.7 604.443 239.083 603.648 242.779 603.648C247.044 603.648 250.797 604.645 254.038 606.635C257.279 608.624 259.78 611.301 261.543 614.656C263.363 618.011 264.273 621.797 264.273 626.005C264.273 629.477 263.647 632.773 262.396 635.904C261.202 638.976 259.496 641.707 257.279 644.096C255.061 646.485 252.474 648.363 249.517 649.728C246.56 651.035 243.348 651.691 239.879 651.691C236.013 651.691 232.487 650.837 229.303 649.131C226.176 647.424 223.844 645.093 222.309 642.133L224.015 640.853L220.348 667.733H212.074ZM239.368 644.011C242.552 644.011 245.366 643.184 247.811 641.536C250.257 639.888 252.189 637.723 253.611 635.051C255.089 632.32 255.829 629.333 255.829 626.091C255.829 623.248 255.232 620.715 254.038 618.496C252.844 616.277 251.195 614.544 249.091 613.291C247.044 611.984 244.599 611.328 241.756 611.328C238.628 611.328 235.814 612.155 233.312 613.803C230.867 615.397 228.934 617.531 227.512 620.203C226.147 622.875 225.465 625.808 225.465 628.992C225.465 631.893 226.062 634.48 227.256 636.757C228.45 639.035 230.099 640.827 232.203 642.133C234.307 643.387 236.695 644.011 239.368 644.011ZM286.105 651.691C283.489 651.691 281.044 651.237 278.769 650.325C276.552 649.36 274.761 647.963 273.396 646.144C272.031 644.267 271.349 641.936 271.349 639.147C271.349 636.475 272.003 634.112 273.311 632.064C274.675 629.957 276.58 628.251 279.025 626.944C281.527 625.579 284.456 624.64 287.81 624.128L305.21 621.312L304.527 627.968L289.175 630.613C286.275 631.125 283.972 632.091 282.266 633.515C280.561 634.88 279.708 636.613 279.708 638.72C279.708 640.656 280.418 642.192 281.84 643.328C283.318 644.411 285.223 644.949 287.554 644.949C290.227 644.949 292.644 644.325 294.804 643.072C297.022 641.819 298.841 640.144 300.263 638.037C301.741 635.877 302.651 633.515 302.992 630.955L304.442 620.032C304.783 617.984 304.527 616.304 303.675 614.997C302.822 613.632 301.628 612.635 300.092 612.011C298.614 611.328 297.022 610.987 295.316 610.987C292.53 610.987 290.028 611.696 287.81 613.12C285.65 614.544 283.972 616.336 282.778 618.496L276.125 614.485C277.262 612.379 278.798 610.533 280.731 608.939C282.721 607.291 284.996 606.011 287.554 605.099C290.17 604.133 292.928 603.648 295.828 603.648C299.239 603.648 302.282 604.357 304.954 605.781C307.683 607.205 309.73 609.168 311.095 611.669C312.517 614.171 313 617.072 312.545 620.373L308.28 650.667H300.433L301.628 641.963L303.333 642.731C302.139 644.549 300.661 646.144 298.898 647.509C297.135 648.816 295.174 649.84 293.013 650.581C290.853 651.323 288.55 651.691 286.105 651.691ZM320.577 650.667L327.059 604.672H334.906L333.712 613.12L332.944 611.925C334.423 609.307 336.356 607.376 338.744 606.123C341.132 604.816 343.918 604.16 347.103 604.16H349.917L348.809 611.669H344.8C341.559 611.669 338.829 612.72 336.612 614.827C334.394 616.875 332.973 619.973 332.347 624.128L328.68 650.667H320.577ZM365.066 651.691C362.45 651.691 360.005 651.237 357.731 650.325C355.513 649.36 353.722 647.963 352.357 646.144C350.993 644.267 350.31 641.936 350.31 639.147C350.31 636.475 350.964 634.112 352.272 632.064C353.637 629.957 355.541 628.251 357.986 626.944C360.488 625.579 363.417 624.64 366.771 624.128L384.171 621.312L383.489 627.968L368.136 630.613C365.236 631.125 362.933 632.091 361.228 633.515C359.522 634.88 358.669 636.613 358.669 638.72C358.669 640.656 359.379 642.192 360.801 643.328C362.279 644.411 364.184 644.949 366.516 644.949C369.188 644.949 371.605 644.325 373.765 643.072C375.983 641.819 377.802 640.144 379.224 638.037C380.702 635.877 381.612 633.515 381.953 630.955L383.403 620.032C383.744 617.984 383.489 616.304 382.636 614.997C381.783 613.632 380.589 612.635 379.053 612.011C377.575 611.328 375.983 610.987 374.277 610.987C371.491 610.987 368.989 611.696 366.771 613.12C364.611 614.544 362.933 616.336 361.739 618.496L355.087 614.485C356.224 612.379 357.759 610.533 359.692 608.939C361.682 607.291 363.957 606.011 366.516 605.099C369.131 604.133 371.889 603.648 374.789 603.648C378.201 603.648 381.243 604.357 383.915 605.781C386.644 607.205 388.691 609.168 390.056 611.669C391.478 614.171 391.961 617.072 391.506 620.373L387.241 650.667H379.395L380.589 641.963L382.294 642.731C381.1 644.549 379.622 646.144 377.859 647.509C376.096 648.816 374.135 649.84 371.974 650.581C369.814 651.323 367.511 651.691 365.066 651.691ZM399.538 650.667L406.02 604.672H413.782L412.588 613.632L411.394 612.693C412.872 609.792 414.976 607.573 417.705 606.037C420.435 604.443 423.42 603.648 426.661 603.648C430.016 603.648 432.915 604.443 435.361 606.037C437.805 607.632 439.596 609.819 440.734 612.608C441.928 615.339 442.269 618.469 441.758 621.995L437.749 650.667H429.731L433.655 622.677C434.11 619.205 433.484 616.448 431.778 614.4C430.073 612.352 427.627 611.328 424.443 611.328C422.226 611.328 420.179 611.84 418.302 612.864C416.482 613.829 414.947 615.227 413.697 617.045C412.503 618.864 411.706 621.029 411.309 623.531L407.556 650.667H399.538ZM448.673 662.528L449.184 658.944C451.061 658.491 452.568 657.552 453.705 656.128C454.899 654.763 455.752 652.944 456.263 650.667H452.084L453.534 640.427H461.807L460.699 648.533C460.187 652.229 458.907 655.275 456.86 657.664C454.813 660.112 452.084 661.733 448.673 662.528ZM484.041 650.667L515.684 587.093H525.578L539.478 650.667H530.866L527.71 635.733H500.673L493.423 650.667H484.041ZM504.426 628.053H526.175L518.925 593.237L521.314 593.493L504.426 628.053ZM546.547 650.667L553.029 604.672H560.791L559.597 613.717L558.658 612.352C560.252 609.451 562.299 607.291 564.799 605.867C567.358 604.389 570.173 603.648 573.243 603.648C576.884 603.648 579.981 604.645 582.54 606.635C585.157 608.624 586.836 611.301 587.572 614.656H585.184C586.89 610.901 589.278 608.144 592.348 606.379C595.478 604.56 598.804 603.648 602.328 603.648C605.569 603.648 608.383 604.416 610.771 605.952C613.159 607.488 614.951 609.621 616.145 612.352C617.397 615.083 617.765 618.213 617.253 621.739L613.245 650.667H605.227L609.065 622.677C609.407 620.347 609.236 618.352 608.554 616.704C607.93 614.997 606.907 613.691 605.483 612.779C604.119 611.813 602.413 611.328 600.366 611.328C598.377 611.328 596.474 611.781 594.651 612.693C592.834 613.605 591.298 614.912 590.046 616.619C588.852 618.325 588.084 620.373 587.743 622.763L583.905 650.667H575.887L579.811 622.677C580.098 620.347 579.896 618.352 579.214 616.704C578.59 614.997 577.566 613.691 576.143 612.779C574.778 611.813 573.073 611.328 571.026 611.328C568.979 611.328 567.049 611.84 565.226 612.864C563.408 613.829 561.899 615.227 560.705 617.045C559.511 618.864 558.717 621.029 558.317 623.531L554.564 650.667H546.547ZM639.179 651.691C636.567 651.691 634.12 651.237 631.844 650.325C629.626 649.36 627.835 647.963 626.47 646.144C625.106 644.267 624.423 641.936 624.423 639.147C624.423 636.475 625.079 634.112 626.385 632.064C627.75 629.957 629.658 628.251 632.1 626.944C634.605 625.579 637.531 624.64 640.885 624.128L658.284 621.312L657.602 627.968L642.249 630.613C639.349 631.125 637.046 632.091 635.341 633.515C633.635 634.88 632.782 636.613 632.782 638.72C632.782 640.656 633.496 642.192 634.914 643.328C636.396 644.411 638.299 644.949 640.629 644.949C643.305 644.949 645.719 644.325 647.878 643.072C650.096 641.819 651.919 640.144 653.337 638.037C654.819 635.877 655.725 633.515 656.066 630.955L657.516 620.032C657.858 617.984 657.602 616.304 656.749 614.997C655.896 613.632 654.702 612.635 653.167 612.011C651.69 611.328 650.096 610.987 648.39 610.987C645.608 610.987 643.102 611.696 640.885 613.12C638.726 614.544 637.046 616.336 635.852 618.496L629.2 614.485C630.34 612.379 631.876 610.533 633.805 608.939C635.799 607.291 638.07 606.011 640.629 605.099C643.246 604.133 646.002 603.648 648.902 603.648C652.314 603.648 655.357 604.357 658.028 605.781C660.757 607.205 662.804 609.168 664.169 611.669C665.592 614.171 666.077 617.072 665.619 620.373L661.354 650.667H653.508L654.702 641.963L656.408 642.731C655.214 644.549 653.737 646.144 651.972 647.509C650.213 648.816 648.252 649.84 646.087 650.581C643.928 651.323 641.625 651.691 639.179 651.691ZM673.652 650.667L680.135 604.672H687.896L686.702 613.632L685.508 612.693C686.984 609.792 689.09 607.573 691.819 606.037C694.549 604.443 697.534 603.648 700.775 603.648C704.128 603.648 707.028 604.443 709.475 606.037C711.922 607.632 713.713 609.819 714.848 612.608C716.042 615.339 716.383 618.469 715.872 621.995L711.863 650.667H703.846L707.769 622.677C708.222 619.205 707.598 616.448 705.893 614.4C704.187 612.352 701.74 611.328 698.557 611.328C696.34 611.328 694.293 611.84 692.417 612.864C690.599 613.829 689.063 615.227 687.811 617.045C686.617 618.864 685.822 621.029 685.423 623.531L681.67 650.667H673.652ZM737.797 651.691C735.185 651.691 732.738 651.237 730.462 650.325C728.244 649.36 726.453 647.963 725.088 646.144C723.724 644.267 723.041 641.936 723.041 639.147C723.041 636.475 723.697 634.112 725.003 632.064C726.368 629.957 728.276 628.251 730.718 626.944C733.223 625.579 736.15 624.64 739.503 624.128L756.902 621.312L756.22 627.968L740.867 630.613C737.967 631.125 735.665 632.091 733.959 633.515C732.253 634.88 731.4 636.613 731.4 638.72C731.4 640.656 732.114 642.192 733.532 643.328C735.014 644.411 736.917 644.949 739.247 644.949C741.923 644.949 744.338 644.325 746.497 643.072C748.714 641.819 750.537 640.144 751.955 638.037C753.437 635.877 754.343 633.515 754.685 630.955L756.134 620.032C756.476 617.984 756.22 616.304 755.367 614.997C754.514 613.632 753.32 612.635 751.785 612.011C750.308 611.328 748.714 610.987 747.008 610.987C744.226 610.987 741.72 611.696 739.503 613.12C737.344 614.544 735.665 616.336 734.471 618.496L727.818 614.485C728.959 612.379 730.494 610.533 732.423 608.939C734.417 607.291 736.688 606.011 739.247 605.099C741.864 604.133 744.62 603.648 747.52 603.648C750.932 603.648 753.975 604.357 756.646 605.781C759.375 607.205 761.423 609.168 762.787 611.669C764.211 614.171 764.696 617.072 764.237 620.373L759.973 650.667H752.126L753.32 641.963L755.026 642.731C753.832 644.549 752.355 646.144 750.59 647.509C748.831 648.816 746.87 649.84 744.705 650.581C742.547 651.323 740.244 651.691 737.797 651.691ZM772.271 650.667L781.311 586.069H789.329L785.491 613.632L784.126 612.693C785.603 609.792 787.708 607.573 790.438 606.037C793.167 604.443 796.152 603.648 799.393 603.648C802.746 603.648 805.646 604.443 808.093 606.037C810.54 607.632 812.331 609.819 813.466 612.608C814.66 615.339 815.002 618.469 814.49 621.995L810.481 650.667H802.378L806.302 622.677C806.755 619.205 806.131 616.448 804.425 614.4C802.72 612.352 800.305 611.328 797.176 611.328C795.017 611.328 792.996 611.84 791.12 612.864C789.302 613.829 787.767 615.227 786.514 617.045C785.261 618.864 784.467 621.029 784.126 623.531L780.373 650.667H772.271ZM821.404 662.528L821.915 658.944C823.792 658.491 825.3 657.552 826.436 656.128C827.63 654.763 828.483 652.944 828.995 650.667H824.815L826.265 640.427H834.539L833.43 648.533C832.918 652.229 831.639 655.275 829.592 657.664C827.545 660.112 824.815 661.733 821.404 662.528ZM884.663 651.691C880.516 651.691 876.816 650.752 873.575 648.875C870.334 646.939 867.807 644.325 865.984 641.024C864.225 637.669 863.34 633.856 863.34 629.589C863.34 625.947 863.937 622.565 865.132 619.435C866.384 616.251 868.117 613.488 870.334 611.157C872.61 608.827 875.228 607.003 878.181 605.696C881.198 604.331 884.439 603.648 887.904 603.648C891.945 603.648 895.41 604.501 898.31 606.208C901.268 607.856 903.545 610.107 905.133 612.949L903.768 614.571L907.692 586.069H915.795L906.839 650.667H898.992L900.271 640.853L902.404 642.133C900.645 645.205 898.171 647.568 894.983 649.216C891.801 650.864 888.363 651.691 884.663 651.691ZM885.516 644.011C888.645 644.011 891.46 643.184 893.96 641.536C896.519 639.888 898.512 637.723 899.93 635.051C901.412 632.32 902.148 629.36 902.148 626.176C902.148 623.333 901.551 620.8 900.357 618.581C899.163 616.363 897.516 614.597 895.41 613.291C893.31 611.984 890.889 611.328 888.16 611.328C885.036 611.328 882.222 612.155 879.716 613.803C877.216 615.451 875.254 617.643 873.831 620.373C872.466 623.104 871.784 626.117 871.784 629.419C871.784 632.208 872.355 634.709 873.49 636.928C874.684 639.088 876.305 640.827 878.352 642.133C880.457 643.387 882.845 644.011 885.516 644.011ZM933.7 651.691C931.088 651.691 928.642 651.237 926.365 650.325C924.148 649.36 922.357 647.963 920.992 646.144C919.627 644.267 918.945 641.936 918.945 639.147C918.945 636.475 919.601 634.112 920.907 632.064C922.271 629.957 924.18 628.251 926.621 626.944C929.127 625.579 932.053 624.64 935.406 624.128L952.806 621.312L952.123 627.968L936.771 630.613C933.871 631.125 931.568 632.091 929.862 633.515C928.156 634.88 927.304 636.613 927.304 638.72C927.304 640.656 928.018 642.192 929.436 643.328C930.918 644.411 932.821 644.949 935.15 644.949C937.826 644.949 940.241 644.325 942.4 643.072C944.618 641.819 946.441 640.144 947.859 638.037C949.341 635.877 950.247 633.515 950.588 630.955L952.038 620.032C952.379 617.984 952.123 616.304 951.27 614.997C950.417 613.632 949.223 612.635 947.688 612.011C946.212 611.328 944.618 610.987 942.912 610.987C940.129 610.987 937.624 611.696 935.406 613.12C933.247 614.544 931.568 616.336 930.374 618.496L923.721 614.485C924.862 612.379 926.397 610.533 928.327 608.939C930.321 607.291 932.592 606.011 935.15 605.099C937.768 604.133 940.524 603.648 943.424 603.648C946.835 603.648 949.879 604.357 952.55 605.781C955.279 607.205 957.326 609.168 958.691 611.669C960.114 614.171 960.599 617.072 960.141 620.373L955.876 650.667H948.029L949.223 641.963L950.929 642.731C949.735 644.549 948.258 646.144 946.494 647.509C944.735 648.816 942.773 649.84 940.609 650.581C938.45 651.323 936.147 651.691 933.7 651.691ZM968.174 650.667L974.656 604.672H982.418L981.224 613.632L980.03 612.693C981.506 609.792 983.612 607.573 986.341 606.037C989.07 604.443 992.056 603.648 995.297 603.648C998.65 603.648 1001.55 604.443 1004 606.037C1006.44 607.632 1008.23 609.819 1009.37 612.608C1010.56 615.339 1010.91 618.469 1010.39 621.995L1006.38 650.667H998.367L1002.29 622.677C1002.74 619.205 1002.12 616.448 1000.41 614.4C998.708 612.352 996.262 611.328 993.079 611.328C990.862 611.328 988.815 611.84 986.938 612.864C985.12 613.829 983.585 615.227 982.332 617.045C981.138 618.864 980.344 621.029 979.944 623.531L976.191 650.667H968.174ZM1033.33 650.667L1042.2 587.093H1067.87C1073.16 587.093 1077.28 588.432 1080.24 591.104C1083.25 593.776 1084.76 597.445 1084.76 602.112C1084.76 604.389 1084.34 606.549 1083.48 608.597C1082.69 610.587 1081.52 612.379 1079.99 613.973C1078.51 615.509 1076.66 616.763 1074.44 617.728L1074.1 615.083C1077.51 616.448 1080.07 618.469 1081.78 621.141C1083.48 623.76 1084.34 626.661 1084.34 629.845C1084.34 633.941 1083.37 637.584 1081.44 640.768C1079.5 643.899 1076.8 646.341 1073.33 648.107C1069.92 649.813 1065.91 650.667 1061.31 650.667H1033.33ZM1042.8 642.987H1062.5C1065.12 642.987 1067.45 642.475 1069.49 641.451C1071.54 640.368 1073.1 638.891 1074.19 637.013C1075.32 635.077 1075.89 632.891 1075.89 630.443C1075.89 627.541 1074.89 625.211 1072.91 623.445C1070.92 621.627 1068.22 620.715 1064.8 620.715H1045.95L1042.8 642.987ZM1046.98 613.205H1064.97C1067.19 613.205 1069.13 612.752 1070.77 611.84C1072.48 610.875 1073.82 609.595 1074.78 608C1075.75 606.352 1076.23 604.501 1076.23 602.453C1076.23 600.005 1075.38 598.101 1073.67 596.736C1072.03 595.371 1069.78 594.688 1066.94 594.688H1049.62L1046.98 613.205ZM1115.15 651.691C1110.88 651.691 1107.13 650.725 1103.89 648.789C1100.65 646.853 1098.09 644.208 1096.21 640.853C1094.39 637.44 1093.48 633.573 1093.48 629.248C1093.48 625.776 1094.05 622.507 1095.19 619.435C1096.38 616.363 1098.06 613.632 1100.22 611.243C1102.44 608.853 1104.97 607.003 1107.81 605.696C1110.71 604.331 1113.89 603.648 1117.36 603.648C1121.68 603.648 1125.35 604.613 1128.37 606.549C1131.38 608.485 1133.68 611.013 1135.28 614.144C1136.86 617.216 1137.66 620.571 1137.66 624.213C1137.66 625.179 1137.58 626.203 1137.41 627.285C1137.24 628.368 1137.07 629.275 1136.9 630.016H1099.2L1099.62 623.189H1132.8L1128.79 626.176C1129.53 623.275 1129.48 620.688 1128.62 618.411C1127.77 616.08 1126.35 614.229 1124.36 612.864C1122.36 611.44 1120.01 610.731 1117.28 610.731C1113.81 610.731 1110.91 611.584 1108.58 613.291C1106.3 614.939 1104.57 617.275 1103.38 620.288C1102.24 623.248 1101.67 626.661 1101.67 630.528C1101.67 633.371 1102.27 635.845 1103.46 637.952C1104.71 640.059 1106.36 641.68 1108.41 642.816C1110.46 643.899 1112.73 644.437 1115.23 644.437C1118.36 644.437 1121.03 643.728 1123.25 642.304C1125.52 640.827 1127.37 638.976 1128.79 636.757L1135.36 640.341C1134.28 642.448 1132.74 644.379 1130.76 646.144C1128.76 647.851 1126.43 649.216 1123.76 650.24C1121.09 651.205 1118.22 651.691 1115.15 651.691ZM1144.59 650.667L1151.07 604.672H1158.92L1157.72 613.12L1156.96 611.925C1158.43 609.307 1160.37 607.376 1162.76 606.123C1165.14 604.816 1167.93 604.16 1171.11 604.16H1173.93L1172.82 611.669H1168.81C1165.57 611.669 1162.84 612.72 1160.62 614.827C1158.41 616.875 1156.98 619.973 1156.36 624.128L1152.69 650.667H1144.59ZM1174.41 650.667L1183.45 586.069H1191.47L1185.33 630.357L1181.4 629.589L1209.29 604.672H1220.12L1199.83 623.189L1214.84 650.667H1205.97L1192.15 625.749L1196.75 625.493L1181.32 639.488L1184.81 633.685L1182.43 650.667H1174.41ZM1236.55 651.691C1233.94 651.691 1231.5 651.237 1229.22 650.325C1227 649.36 1225.21 647.963 1223.85 646.144C1222.48 644.267 1221.8 641.936 1221.8 639.147C1221.8 636.475 1222.45 634.112 1223.76 632.064C1225.12 629.957 1227.03 628.251 1229.47 626.944C1231.97 625.579 1234.91 624.64 1238.26 624.128L1255.66 621.312L1254.98 627.968L1239.62 630.613C1236.72 631.125 1234.42 632.091 1232.72 633.515C1231.01 634.88 1230.16 636.613 1230.16 638.72C1230.16 640.656 1230.87 642.192 1232.29 643.328C1233.77 644.411 1235.67 644.949 1238 644.949C1240.67 644.949 1243.09 644.325 1245.25 643.072C1247.47 641.819 1249.29 640.144 1250.71 638.037C1252.19 635.877 1253.1 633.515 1253.44 630.955L1254.89 620.032C1255.23 617.984 1254.98 616.304 1254.12 614.997C1253.27 613.632 1252.08 612.635 1250.54 612.011C1249.07 611.328 1247.47 610.987 1245.77 610.987C1242.98 610.987 1240.48 611.696 1238.26 613.12C1236.1 614.544 1234.42 616.336 1233.23 618.496L1226.57 614.485C1227.71 612.379 1229.25 610.533 1231.18 608.939C1233.17 607.291 1235.45 606.011 1238 605.099C1240.62 604.133 1243.38 603.648 1246.28 603.648C1249.69 603.648 1252.73 604.357 1255.4 605.781C1258.13 607.205 1260.18 609.168 1261.54 611.669C1262.97 614.171 1263.45 617.072 1262.99 620.373L1258.73 650.667H1250.88L1252.08 641.963L1253.78 642.731C1252.59 644.549 1251.11 646.144 1249.35 647.509C1247.58 648.816 1245.62 649.84 1243.46 650.581C1241.3 651.323 1239 651.691 1236.55 651.691ZM1271.03 650.667L1280.07 586.069H1288.09L1284.25 613.632L1282.88 612.693C1284.36 609.792 1286.47 607.573 1289.19 606.037C1291.92 604.443 1294.91 603.648 1298.15 603.648C1301.5 603.648 1304.4 604.443 1306.85 606.037C1309.29 607.632 1311.08 609.819 1312.22 612.608C1313.42 615.339 1313.76 618.469 1313.25 621.995L1309.24 650.667H1301.14L1305.06 622.677C1305.51 619.205 1304.89 616.448 1303.18 614.4C1301.48 612.352 1299.06 611.328 1295.93 611.328C1293.77 611.328 1291.75 611.84 1289.88 612.864C1288.05 613.829 1286.52 615.227 1285.27 617.045C1284.02 618.864 1283.22 621.029 1282.88 623.531L1279.13 650.667H1271.03Z" fill="#00C570"/>
<path d="M250.543 453.333H218.559V560H250.543V453.333Z" fill="#00C570"/>
<path d="M271.866 410.667H314.512V560H271.866V410.667Z" fill="#00C570"/>
</svg>
